<?xml version="1.0" encoding="utf-8"?>
<!-- Generator: Adobe Illustrator 19.2.1, SVG Export Plug-In . SVG Version: 6.00 Build 0)  -->
<svg version="1.1" id="ba7a25ce-c07b-4ac4-a0ea-a259ac25350d"
	 xmlns="http://www.w3.org/2000/svg" xmlns:xlink="http://www.w3.org/1999/xlink" x="0px" y="0px" viewBox="0 0 886 658.9"
	 style="enable-background:new 0 0 886 658.9;" xml:space="preserve">
<style type="text/css">
	.st0{fill:url(#SVGID_1_);}
	.st1{fill:#4099D2;}
	.st2{fill:url(#SVGID_2_);}
	.st3{fill:#00897B;}
	.st4{fill:url(#SVGID_3_);}
	.st5{fill:#795548;}
	.st6{fill:url(#SVGID_4_);}
	.st7{fill:#009688;}
	.st8{fill:none;}
	.st9{fill:url(#SVGID_5_);}
	.st10{fill:url(#SVGID_6_);}
	.st11{fill:#FFFFFF;}
	.st12{fill:url(#SVGID_7_);}
	.st13{fill:url(#SVGID_8_);}
	.st14{fill:url(#SVGID_9_);}
	.st15{fill:url(#SVGID_10_);}
	.st16{fill:url(#SVGID_11_);}
	.st17{opacity:0.2;fill:#4099D2;enable-background:new    ;}
	.st18{opacity:0.2;enable-background:new    ;}
	.st19{fill:url(#SVGID_12_);}
	.st20{fill:#263238;}
	.st21{fill:url(#SVGID_13_);}
	.st22{fill:url(#SVGID_14_);}
	.st23{fill:url(#SVGID_15_);}
	.st24{fill:url(#SVGID_16_);}
	.st25{fill:url(#SVGID_17_);}
	.st26{fill:none;stroke:#37474F;stroke-miterlimit:10;}
	.st27{fill:url(#SVGID_18_);}
	.st28{fill:#F5F5F5;}
	.st29{fill:url(#SVGID_19_);}
	.st30{fill:url(#SVGID_20_);}
	.st31{fill:url(#SVGID_21_);}
	.st32{fill:#E6E6E6;}
	.st33{fill:url(#SVGID_22_);}
	.st34{fill:url(#SVGID_23_);}
	.st35{fill:url(#SVGID_24_);}
	.st36{fill:url(#SVGID_25_);}
	.st37{fill:url(#SVGID_26_);}
</style>
<title>for sale</title>
<linearGradient id="SVGID_1_" gradientUnits="userSpaceOnUse" x1="709" y1="424.055" x2="768" y2="424.055" gradientTransform="matrix(1 0 0 -1 0 563.18)">
	<stop  offset="0" style="stop-color:#808080;stop-opacity:0.25"/>
	<stop  offset="0.54" style="stop-color:#808080;stop-opacity:0.12"/>
	<stop  offset="1" style="stop-color:#808080;stop-opacity:0.1"/>
</linearGradient>
<polygon class="st0" points="709,144 709,77.6 768,77.6 768,200.7 "/>
<polygon class="st1" points="716,148.6 716,90.6 760,90.6 760,200.7 "/>
<g id="f741385e-e577-4271-b030-1aa9bd75830a">
	
		<linearGradient id="SVGID_2_" gradientUnits="userSpaceOnUse" x1="347.6348" y1="101.87" x2="347.6348" y2="503.18" gradientTransform="matrix(1 0 0 -1 -157 503.18)">
		<stop  offset="0" style="stop-color:#808080;stop-opacity:0.25"/>
		<stop  offset="0.54" style="stop-color:#808080;stop-opacity:0.12"/>
		<stop  offset="1" style="stop-color:#808080;stop-opacity:0.1"/>
	</linearGradient>
	<path class="st2" d="M345.5,207.1c31.3-35.8,27.7-90.3-8.2-121.6c-3-2.7-6.3-5.1-9.6-7.3c5.3-8.3,8.2-17.9,8.2-27.8
		c0-27.8-22.1-50.4-49.3-50.4c-22.4,0-41.3,15.3-47.3,36.3C226.4,14.5,203.1,0,176.4,0c-40.6,0-73.5,33.6-73.5,75.1
		c0,8.8,1.5,17.6,4.5,25.9c-1.5-0.1-3-0.2-4.5-0.2c-32.6,0-59,27-59,60.3c0,2,0.1,4.1,0.3,6.1C17.2,179.4-0.2,206.3,0,236
		c0,41.4,32.8,74.9,73.2,74.9c4.2,0,8.5-0.4,12.7-1.1c-0.2,2.5-0.4,5-0.4,7.6c0,46.4,36.8,84,82.2,84c16.8,0,33.1-5.2,46.8-15
		c11,9.7,25.1,15,39.7,15c33.9,0,61.4-28.1,61.4-62.8c0-1.5-0.1-3-0.2-4.5h0.2c36.3,0,65.7-30.1,65.7-67.2
		C381.4,241.8,367.6,218.8,345.5,207.1z"/>
</g>
<path id="aa86aca2-1def-4b5e-bdbf-3429bf39090e" class="st3" d="M336,206.7c29.4-33.6,26-84.7-7.6-114.1c-2.9-2.5-5.9-4.8-9.1-6.9
	c5-7.7,7.7-16.8,7.7-26c0-26.1-20.7-47.3-46.3-47.3c-21,0-38.8,14.4-44.4,34.1c-12.2-21-34.7-34-59-34.1c-38.1,0-69,31.6-69,70.5
	c0,8.3,1.4,16.5,4.2,24.3c-1.4-0.1-2.8-0.2-4.2-0.2C77.8,107,53,132.3,53,163.6c0,1.9,0.1,3.8,0.3,5.7
	c-25.4,11.4-41.7,36.7-41.6,64.6c0,38.8,30.8,70.3,68.7,70.3c4,0,8-0.4,11.9-1.1c-0.2,2.3-0.3,4.7-0.3,7.1
	c0,43.6,34.5,78.9,77.1,78.9c15.7,0,31.1-4.9,43.9-14c10.3,9,23.6,14,37.3,14c31.8,0,57.6-26.4,57.6-58.9c0-1.4-0.1-2.8-0.2-4.2h0.2
	c34.1,0,61.7-28.3,61.7-63.1C369.7,239.3,356.8,217.7,336,206.7z"/>
<linearGradient id="SVGID_3_" gradientUnits="userSpaceOnUse" x1="205.395" y1="1.01" x2="205.395" y2="446.52" gradientTransform="matrix(1 0 0 -1 0 563.18)">
	<stop  offset="0" style="stop-color:#808080;stop-opacity:0.25"/>
	<stop  offset="0.54" style="stop-color:#808080;stop-opacity:0.12"/>
	<stop  offset="1" style="stop-color:#808080;stop-opacity:0.1"/>
</linearGradient>
<rect x="196.4" y="116.7" class="st4" width="17.9" height="445.5"/>
<rect x="201.5" y="122.9" class="st5" width="9" height="439.3"/>
<rect x="186.6" y="211" transform="matrix(0.6794 -0.7337 0.7337 0.6794 -80.87 245.8962)" class="st5" width="108.8" height="9"/>
<rect x="161.2" y="247.9" transform="matrix(0.5962 -0.8028 0.8028 0.5962 -170.4129 252.3735)" class="st5" width="9" height="95.5"/>
<g id="b1e29bf6-85c6-472a-ba69-b630e8d8f49d">
	
		<linearGradient id="SVGID_4_" gradientUnits="userSpaceOnUse" x1="527.14" y1="84.0697" x2="527.14" y2="419.7613" gradientTransform="matrix(1 0 0 -1 -157 503.18)">
		<stop  offset="0" style="stop-color:#808080;stop-opacity:0.25"/>
		<stop  offset="0.54" style="stop-color:#808080;stop-opacity:0.12"/>
		<stop  offset="1" style="stop-color:#808080;stop-opacity:0.1"/>
	</linearGradient>
	<path class="st6" d="M233,256.6c-12.1-12.9-18.8-29.9-18.9-47.5c0-25.4,13.8-47.7,34.6-60.3c-4.7-6.8-7.2-14.9-7.2-23.2
		c0-23.3,19.5-42.2,43.6-42.2c19.9,0,36.6,12.8,41.9,30.4c12.1-19,33.1-30.5,55.7-30.4c35.9,0,65,28.1,65,62.8
		c0,7.4-1.4,14.8-4,21.7c1.3-0.1,2.6-0.2,4-0.2c28.8,0,52.2,22.6,52.2,50.4c0,1.7-0.1,3.4-0.3,5.1c23.1,9.6,39.2,31.8,39.2,57.5
		c0,34.6-29,62.6-64.8,62.6c-3.8,0-7.5-0.4-11.2-1c0.2,2.1,0.3,4.2,0.3,6.3c0,38.8-32.6,70.3-72.8,70.3c-14.7,0-29.1-4.3-41.4-12.5
		c-9.9,8.1-22.4,12.6-35.2,12.5c-30,0-54.4-23.5-54.4-52.5c0-1.3,0.1-2.5,0.2-3.7h-0.2c-32.1,0-58.2-25.2-58.2-56.2
		C201.3,284.8,214.2,265.9,233,256.6z"/>
</g>
<path id="da8ae254-7852-462b-b033-1b79dc847a6a" class="st7" d="M238.9,256.4c-11.6-12.3-18-28.6-18-45.5
	c0-24.4,13.2-45.7,33.1-57.7c-4.5-6.5-6.9-14.3-6.9-22.2c0-22.3,18.7-40.4,41.8-40.4c19,0,35,12.3,40.1,29.1
	c11.6-18.2,31.7-29.2,53.3-29c34.4,0,62.3,26.9,62.3,60.1c0,7.1-1.3,14.1-3.8,20.8c1.3-0.1,2.5-0.2,3.8-0.2c27.6,0,50,21.6,50,48.3
	c0,1.6-0.1,3.3-0.3,4.9c22.1,9.2,37.5,30.4,37.5,55.1c0,33.1-27.8,60-62.1,60c-3.6,0-7.2-0.3-10.7-1c0.2,2,0.3,4,0.3,6.1
	c0,37.2-31.2,67.3-69.6,67.3c-14.1,0-27.9-4.1-39.6-12c-9.5,7.8-21.4,12-33.7,12c-28.7,0-52-22.5-52-50.3c0-1.2,0.1-2.4,0.2-3.6
	h-0.2c-30.8,0-55.7-24.1-55.7-53.8C208.6,283.4,220.9,265.3,238.9,256.4z"/>
<line id="d827a518-3361-4086-b50f-c6b47e6818cd" class="st8" x1="357" y1="186" x2="357" y2="559.9"/>
<linearGradient id="SVGID_5_" gradientUnits="userSpaceOnUse" x1="356.615" y1="3.27" x2="356.615" y2="377.19" gradientTransform="matrix(1 0 0 -1 0 563.18)">
	<stop  offset="0" style="stop-color:#808080;stop-opacity:0.25"/>
	<stop  offset="0.54" style="stop-color:#808080;stop-opacity:0.12"/>
	<stop  offset="1" style="stop-color:#808080;stop-opacity:0.1"/>
</linearGradient>
<rect x="346.4" y="186" class="st9" width="20.4" height="373.9"/>
<rect x="351.3" y="186" class="st5" width="11.3" height="373.9"/>
<line id="_x34_a2b3956-f53f-4918-93e5-f7b78a79ae92" class="st8" x1="358.1" y1="298" x2="291.3" y2="229.9"/>
<rect x="319.1" y="216.2" transform="matrix(0.7141 -0.7 0.7 0.7141 -91.9298 302.7565)" class="st5" width="11.3" height="95.4"/>
<line id="_x31_00a92bc-a3f1-4f9a-a93f-0d91ae55d71b" class="st8" x1="358.1" y1="356.5" x2="427.3" y2="307.9"/>
<rect x="350.4" y="326.6" transform="matrix(0.8186 -0.5744 0.5744 0.8186 -119.5824 285.8595)" class="st5" width="84.6" height="11.3"/>
<linearGradient id="SVGID_6_" gradientUnits="userSpaceOnUse" x1="719.12" y1="-128.63" x2="719.12" y2="251.59" gradientTransform="matrix(1 0 0 -1 -157 503.18)">
	<stop  offset="0" style="stop-color:#808080;stop-opacity:0.25"/>
	<stop  offset="0.54" style="stop-color:#808080;stop-opacity:0.12"/>
	<stop  offset="1" style="stop-color:#808080;stop-opacity:0.1"/>
</linearGradient>
<path class="st10" d="M813.2,251.6H311c-11.5,0-20.8,5.2-20.8,11.5v368.7H834V263.1C834,256.8,824.7,251.6,813.2,251.6z"/>
<polygon class="st11" points="560.5,40.6 298.5,235.2 298.5,617.8 824.1,617.8 824.1,249.1 "/>
<linearGradient id="SVGID_7_" gradientUnits="userSpaceOnUse" x1="561.04" y1="288.68" x2="561.04" y2="405.36" gradientTransform="matrix(1 0 0 -1 0 563.18)">
	<stop  offset="0" style="stop-color:#808080;stop-opacity:0.25"/>
	<stop  offset="0.54" style="stop-color:#808080;stop-opacity:0.12"/>
	<stop  offset="1" style="stop-color:#808080;stop-opacity:0.1"/>
</linearGradient>
<circle class="st12" cx="561" cy="216.2" r="58.3"/>
<linearGradient id="SVGID_8_" gradientUnits="userSpaceOnUse" x1="400.095" y1="131.38" x2="400.095" y2="234.51" gradientTransform="matrix(1 0 0 -1 0 563.18)">
	<stop  offset="0" style="stop-color:#808080;stop-opacity:0.25"/>
	<stop  offset="0.54" style="stop-color:#808080;stop-opacity:0.12"/>
	<stop  offset="1" style="stop-color:#808080;stop-opacity:0.1"/>
</linearGradient>
<rect x="348.5" y="328.7" class="st13" width="103.1" height="103.1"/>
<linearGradient id="SVGID_9_" gradientUnits="userSpaceOnUse" x1="719.905" y1="131.38" x2="719.905" y2="234.51" gradientTransform="matrix(1 0 0 -1 0 563.18)">
	<stop  offset="0" style="stop-color:#808080;stop-opacity:0.25"/>
	<stop  offset="0.54" style="stop-color:#808080;stop-opacity:0.12"/>
	<stop  offset="1" style="stop-color:#808080;stop-opacity:0.1"/>
</linearGradient>
<rect x="668.3" y="328.7" class="st14" width="103.1" height="103.1"/>
<linearGradient id="SVGID_10_" gradientUnits="userSpaceOnUse" x1="560.015" y1="230.89" x2="560.015" y2="560.84" gradientTransform="matrix(1 0 0 -1 0 563.18)">
	<stop  offset="0" style="stop-color:#808080;stop-opacity:0.25"/>
	<stop  offset="0.54" style="stop-color:#808080;stop-opacity:0.12"/>
	<stop  offset="1" style="stop-color:#808080;stop-opacity:0.1"/>
</linearGradient>
<polygon class="st15" points="248,332.3 234,254.1 561.7,2.3 886,259.2 877,329.3 561.6,91.3 "/>
<polygon class="st1" points="248.6,316.6 239,262.6 561.6,10.9 881,262.6 871.3,316.6 561.5,72.4 "/>
<linearGradient id="SVGID_11_" gradientUnits="userSpaceOnUse" x1="560.525" y1="-54.57" x2="560.525" y2="117.84" gradientTransform="matrix(1 0 0 -1 0 563.18)">
	<stop  offset="0" style="stop-color:#808080;stop-opacity:0.25"/>
	<stop  offset="0.54" style="stop-color:#808080;stop-opacity:0.12"/>
	<stop  offset="1" style="stop-color:#808080;stop-opacity:0.1"/>
</linearGradient>
<rect x="497.5" y="445.3" class="st16" width="126" height="172.4"/>
<rect x="501.1" y="449" class="st1" width="118.8" height="168.8"/>
<rect x="353.2" y="332.3" class="st1" width="95.8" height="33.9"/>
<rect x="353.2" y="366.2" class="st17" width="95.8" height="62"/>
<rect x="672" y="332.3" class="st1" width="95.8" height="33.9"/>
<rect x="672" y="366.2" class="st17" width="95.8" height="62"/>
<path class="st1" d="M560.5,268.8c29.3,0,53.1-23.8,53.1-53.1c0,0,0,0,0-0.1H507.4C507.4,244.9,531.1,268.7,560.5,268.8
	C560.5,268.8,560.5,268.8,560.5,268.8z"/>
<path class="st18" d="M560.5,268.3c29.3,0,53.1-23.8,53.1-53.1l0,0H507.4C507.4,244.5,531.2,268.3,560.5,268.3L560.5,268.3z"/>
<path class="st17" d="M560.5,162.5c-29.3,0-53.1,23.8-53.1,53.1h106.3C613.6,186.3,589.8,162.5,560.5,162.5z"/>
<path class="st17" d="M560.5,162.5c-29.3,0-53.1,23.8-53.1,53.1h106.3C613.6,186.3,589.8,162.5,560.5,162.5z"/>
<linearGradient id="SVGID_12_" gradientUnits="userSpaceOnUse" x1="592.29" y1="17.83" x2="592.29" y2="42.83" gradientTransform="matrix(1 0 0 -1 0 563.18)">
	<stop  offset="0" style="stop-color:#808080;stop-opacity:0.25"/>
	<stop  offset="0.54" style="stop-color:#808080;stop-opacity:0.12"/>
	<stop  offset="1" style="stop-color:#808080;stop-opacity:0.1"/>
</linearGradient>
<circle class="st19" cx="592.3" cy="532.8" r="12.5"/>
<circle class="st20" cx="592.3" cy="532.8" r="9.4"/>
<linearGradient id="SVGID_13_" gradientUnits="userSpaceOnUse" x1="558.435" y1="-80.09" x2="558.435" y2="-30.09" gradientTransform="matrix(1 0 0 -1 0 563.18)">
	<stop  offset="0" style="stop-color:#808080;stop-opacity:0.25"/>
	<stop  offset="0.54" style="stop-color:#808080;stop-opacity:0.12"/>
	<stop  offset="1" style="stop-color:#808080;stop-opacity:0.1"/>
</linearGradient>
<rect x="481.9" y="593.3" class="st21" width="153.1" height="50"/>
<rect x="485" y="597.4" class="st11" width="146.9" height="42.7"/>
<g id="_x30_6ed4a51-c0d7-4f18-ace3-f8895d5abf4f">
	
		<linearGradient id="SVGID_14_" gradientUnits="userSpaceOnUse" x1="424.135" y1="-64.37" x2="424.135" y2="120.6599" gradientTransform="matrix(1 0 0 -1 -157 503.18)">
		<stop  offset="0" style="stop-color:#808080;stop-opacity:0.25"/>
		<stop  offset="0.54" style="stop-color:#808080;stop-opacity:0.12"/>
		<stop  offset="1" style="stop-color:#808080;stop-opacity:0.1"/>
	</linearGradient>
	<path class="st22" d="M338.5,478c14.4-16.5,12.7-41.6-3.8-56.1c-1.4-1.2-2.9-2.3-4.4-3.4c2.5-3.8,3.8-8.3,3.8-12.8
		c0.3-12.5-9.6-22.9-22.1-23.2c-10.4-0.3-19.7,6.6-22.4,16.7c-6-10.3-17.1-16.7-29-16.7c-18.7,0-33.9,15.5-33.9,34.6
		c0,4.1,0.7,8.2,2.1,12c-0.7,0-1.4-0.1-2.1-0.1c-15,0-27.2,12.4-27.2,27.8c0,1,0,1.9,0.1,2.8c-12.5,5.6-20.5,18-20.4,31.7
		c0,19.1,15.1,34.5,33.8,34.5c2,0,3.9-0.2,5.8-0.5c-0.1,1.2-0.2,2.3-0.2,3.5c0,21.4,17,38.7,37.9,38.7c7.7,0,15.3-2.4,21.6-6.9
		c5.1,4.4,11.6,6.9,18.3,6.9c15.6,0,28.3-13,28.3-28.9c0-0.7,0-1.4-0.1-2h0.1c16.7,0,30.3-13.9,30.3-31
		C355.1,494,348.7,483.4,338.5,478z"/>
</g>
<path id="_x37_8683fa5-7813-42ce-9e3f-16828d09ffb2" class="st3" d="M334.1,477.8c13.6-15.5,12-39.1-3.5-52.6
	c-1.3-1.1-2.7-2.2-4.2-3.2c2.3-3.6,3.5-7.7,3.5-12c0.3-11.7-9-21.5-20.7-21.8c-9.8-0.2-18.5,6.2-21.1,15.7
	c-5.6-9.7-16-15.7-27.2-15.7c-17.5,0-31.8,14.5-31.8,32.5c0,3.8,0.7,7.6,2,11.2c-0.6,0-1.3-0.1-2-0.1c-14.1,0-25.5,11.7-25.5,26.1
	c0,0.9,0,1.8,0.1,2.6c-11.7,5.3-19.2,16.9-19.2,29.8c0,17.9,14.2,32.4,31.7,32.4c1.8,0,3.7-0.2,5.5-0.5c-0.1,1.1-0.1,2.2-0.1,3.3
	c0,20.1,15.9,36.3,35.5,36.3c7.3,0,14.3-2.3,20.2-6.5c4.8,4.2,10.9,6.5,17.2,6.5c14.7,0,26.5-12.2,26.5-27.2c0-0.7,0-1.3-0.1-1.9
	h0.1c15.7,0,28.4-13,28.4-29.1C349.7,492.8,343.7,482.9,334.1,477.8z"/>
<linearGradient id="SVGID_15_" gradientUnits="userSpaceOnUse" x1="273.95" y1="-78.48" x2="273.95" y2="126.88" gradientTransform="matrix(1 0 0 -1 0 563.18)">
	<stop  offset="0" style="stop-color:#808080;stop-opacity:0.25"/>
	<stop  offset="0.54" style="stop-color:#808080;stop-opacity:0.12"/>
	<stop  offset="1" style="stop-color:#808080;stop-opacity:0.1"/>
</linearGradient>
<rect x="269.8" y="436.3" class="st23" width="8.3" height="205.4"/>
<rect x="272.2" y="439.2" class="st5" width="4.1" height="202.5"/>
<rect x="265.3" y="479.7" transform="matrix(0.6794 -0.7337 0.7337 0.6794 -260.4455 367.4995)" class="st5" width="50.2" height="4.2"/>
<rect x="253.6" y="496.8" transform="matrix(0.5962 -0.8028 0.8028 0.5962 -313.2752 414.7133)" class="st5" width="4.1" height="44"/>
<g id="_x39_72b0d41-b6e5-4c12-bd64-332f8d6d9bc4">
	
		<linearGradient id="SVGID_16_" gradientUnits="userSpaceOnUse" x1="506.955" y1="-72.5701" x2="506.955" y2="82.2314" gradientTransform="matrix(1 0 0 -1 -157 503.18)">
		<stop  offset="0" style="stop-color:#808080;stop-opacity:0.25"/>
		<stop  offset="0.54" style="stop-color:#808080;stop-opacity:0.12"/>
		<stop  offset="1" style="stop-color:#808080;stop-opacity:0.1"/>
	</linearGradient>
	<path class="st24" d="M286.7,500.8c-5.6-5.9-8.7-13.8-8.7-21.9c0.1-11.4,6.1-22,16-27.8c-2.2-3.1-3.3-6.9-3.3-10.7
		c0-10.7,9-19.4,20.1-19.4c8.8-0.1,16.7,5.6,19.3,14c5.6-8.8,15.3-14.1,25.7-14c16.6,0,30,13,30,29c0,3.4-0.6,6.8-1.8,10
		c0.6,0,1.2-0.1,1.8-0.1c13.3,0,24.1,10.4,24.1,23.3c0,0.8,0,1.6-0.1,2.3c10.8,4.4,18,14.8,18.1,26.5c0,15.9-13.4,28.9-29.9,28.9
		c-1.7,0-3.5-0.1-5.2-0.4c0.1,1,0.1,1.9,0.1,2.9c0,17.9-15,32.4-33.5,32.4c-6.8,0-13.4-2-19.1-5.8c-4.6,3.7-10.3,5.8-16.2,5.7
		c-13.8,0-25-10.8-25-24.2c0-0.6,0-1.2,0.1-1.7H299c-14.8,0-26.8-11.6-26.8-25.9C272.2,514,277.8,505.1,286.7,500.8z"/>
</g>
<path id="b9cc99c1-468f-47c5-9d53-f370b6656f3a" class="st7" d="M289.4,500.7c-5.3-5.7-8.3-13.2-8.3-21c0.1-10.9,5.9-21,15.3-26.6
	c-2.1-3-3.2-6.6-3.2-10.2c0-10.3,8.6-18.6,19.3-18.6c8.4-0.1,15.9,5.3,18.5,13.4c5.3-8.4,14.6-13.5,24.6-13.4
	c15.8,0,28.7,12.4,28.7,27.7c0,3.3-0.6,6.5-1.8,9.6c0.6,0,1.2-0.1,1.8-0.1c12.7,0,23,10,23,22.3c0,0.8,0,1.5-0.1,2.3
	c10.4,4.2,17.2,14.2,17.3,25.4c0,15.3-12.8,27.6-28.6,27.6c-1.7,0-3.3-0.1-5-0.4c0.1,0.9,0.1,1.8,0.1,2.8c0,17.1-14.4,31-32.1,31
	c-6.5,0-12.9-1.9-18.3-5.5c-4.4,3.6-9.9,5.5-15.5,5.5c-13.2,0-24-10.4-24-23.2c0-0.6,0-1.1,0.1-1.6H301c-14.2,0-25.7-11.1-25.7-24.8
	C275.4,513.3,280.9,504.7,289.4,500.7z"/>
<line id="_x37_a451371-7fbb-4ddd-b5af-3dcf3eef4c8e" class="st8" x1="343.8" y1="468.2" x2="343.8" y2="640.6"/>
<linearGradient id="SVGID_17_" gradientUnits="userSpaceOnUse" x1="343.655" y1="-77.43" x2="343.655" y2="94.93" gradientTransform="matrix(1 0 0 -1 0 563.18)">
	<stop  offset="0" style="stop-color:#808080;stop-opacity:0.25"/>
	<stop  offset="0.54" style="stop-color:#808080;stop-opacity:0.12"/>
	<stop  offset="1" style="stop-color:#808080;stop-opacity:0.1"/>
</linearGradient>
<rect x="339" y="468.2" class="st25" width="9.4" height="172.4"/>
<rect x="341.2" y="468.2" class="st5" width="5.2" height="172.4"/>
<line id="f8907fab-e671-432b-8785-92f5b3540283" class="st8" x1="344.3" y1="519.9" x2="313.6" y2="488.5"/>
<rect x="326.4" y="482.2" transform="matrix(0.7141 -0.7 0.7 0.7141 -258.9032 374.4185)" class="st5" width="5.2" height="44"/>
<line id="_x38_3bfd14d-9fcf-4efd-aa6d-a51063723d88" class="st8" x1="344.3" y1="546.9" x2="376.3" y2="524.5"/>
<rect x="340.8" y="533.1" transform="matrix(0.8186 -0.5744 0.5744 0.8186 -242.3179 304.1603)" class="st5" width="39" height="5.2"/>
<polyline class="st26" points="89.2,405.4 156.8,475.6 233.2,405.4 "/>
<linearGradient id="SVGID_18_" gradientUnits="userSpaceOnUse" x1="45.225" y1="-86.61" x2="45.225" y2="193.39" gradientTransform="matrix(1 0 0 -1 0 563.18)">
	<stop  offset="0" style="stop-color:#808080;stop-opacity:0.25"/>
	<stop  offset="0.54" style="stop-color:#808080;stop-opacity:0.12"/>
	<stop  offset="1" style="stop-color:#808080;stop-opacity:0.1"/>
</linearGradient>
<rect x="22.6" y="369.8" class="st27" width="45.3" height="280"/>
<rect x="26.1" y="375.1" class="st28" width="38.2" height="264.9"/>
<linearGradient id="SVGID_19_" gradientUnits="userSpaceOnUse" x1="147" y1="132.94" x2="147" y2="181.83" gradientTransform="matrix(1 0 0 -1 0 563.18)">
	<stop  offset="0" style="stop-color:#808080;stop-opacity:0.25"/>
	<stop  offset="0.54" style="stop-color:#808080;stop-opacity:0.12"/>
	<stop  offset="1" style="stop-color:#808080;stop-opacity:0.1"/>
</linearGradient>
<rect x="11" y="381.4" class="st29" width="272" height="48.9"/>
<rect x="14.6" y="386.7" class="st28" width="264.9" height="38.2"/>
<linearGradient id="SVGID_20_" gradientUnits="userSpaceOnUse" x1="45.67" y1="149.83" x2="45.67" y2="165.83" gradientTransform="matrix(1 0 0 -1 0 563.18)">
	<stop  offset="0" style="stop-color:#808080;stop-opacity:0.25"/>
	<stop  offset="0.54" style="stop-color:#808080;stop-opacity:0.12"/>
	<stop  offset="1" style="stop-color:#808080;stop-opacity:0.1"/>
</linearGradient>
<circle class="st30" cx="45.7" cy="405.4" r="8"/>
<linearGradient id="SVGID_21_" gradientUnits="userSpaceOnUse" x1="259.89" y1="149.83" x2="259.89" y2="165.83" gradientTransform="matrix(1 0 0 -1 0 563.18)">
	<stop  offset="0" style="stop-color:#808080;stop-opacity:0.25"/>
	<stop  offset="0.54" style="stop-color:#808080;stop-opacity:0.12"/>
	<stop  offset="1" style="stop-color:#808080;stop-opacity:0.1"/>
</linearGradient>
<circle class="st31" cx="259.9" cy="405.4" r="8"/>
<circle class="st32" cx="45.7" cy="405.4" r="6.2"/>
<circle class="st32" cx="259.9" cy="405.4" r="6.2"/>
<linearGradient id="SVGID_22_" gradientUnits="userSpaceOnUse" x1="75.89" y1="33.84" x2="247.45" y2="33.84" gradientTransform="matrix(1 0 0 -1 0 563.18)">
	<stop  offset="0" style="stop-color:#808080;stop-opacity:0.25"/>
	<stop  offset="0.54" style="stop-color:#808080;stop-opacity:0.12"/>
	<stop  offset="1" style="stop-color:#808080;stop-opacity:0.1"/>
</linearGradient>
<rect x="75.9" y="471.1" class="st33" width="171.6" height="116.4"/>
<rect x="77.2" y="472.5" class="st1" width="168.9" height="112"/>
<rect x="96.8" y="490.2" class="st11" width="119.1" height="10.7"/>
<rect x="118.6" y="511.1" class="st11" width="84.4" height="10.7"/>
<rect x="107.9" y="532" class="st11" width="102.2" height="10.7"/>
<rect x="98.1" y="552.9" class="st11" width="119.1" height="10.7"/>
<g id="_x36_3650477-b8a1-43d8-a2c1-7cd9fae56092">
	
		<linearGradient id="SVGID_23_" gradientUnits="userSpaceOnUse" x1="108.4398" y1="-88.3" x2="108.4398" y2="79.8983" gradientTransform="matrix(-1 0 0 -1 909.08 503.18)">
		<stop  offset="0" style="stop-color:#808080;stop-opacity:0.25"/>
		<stop  offset="0.54" style="stop-color:#808080;stop-opacity:0.12"/>
		<stop  offset="1" style="stop-color:#808080;stop-opacity:0.1"/>
	</linearGradient>
	<path class="st34" d="M735.7,510.1c-13.1-15-11.6-37.8,3.5-51c1.3-1.1,2.6-2.1,4-3c-2.2-3.5-3.4-7.5-3.4-11.6
		c-0.3-11.4,8.7-20.8,20-21.1c9.5-0.3,18,6,20.4,15.2c5.5-9.4,15.5-15.2,26.4-15.2c17,0,30.8,14.1,30.8,31.5c0,3.7-0.6,7.4-1.9,10.9
		c0.6,0,1.3-0.1,1.9-0.1c13.7,0,24.7,11.3,24.7,25.3c0,0.9,0,1.7-0.1,2.5c11.3,5.1,18.6,16.4,18.6,28.8c0,17.3-13.7,31.4-30.7,31.4
		c-1.8,0-3.6-0.2-5.3-0.5c0.1,1,0.2,2.1,0.2,3.2c0,19.4-15.4,35.2-34.4,35.2c-7,0-13.9-2.2-19.6-6.3c-4.6,4-10.5,6.3-16.7,6.3
		c-14.2,0-25.7-11.8-25.7-26.3c0-0.6,0-1.3,0.1-1.9h-0.1c-15.2,0-27.5-12.6-27.5-28.2C720.7,524.6,726.5,515,735.7,510.1z"/>
</g>
<path id="d9fb3d72-af8e-4f1d-b977-47710d21b422" class="st3" d="M739.7,509.9c-12.3-14.1-10.9-35.5,3.2-47.8c1.2-1,2.5-2,3.8-2.9
	c-2.1-3.2-3.2-7-3.2-10.9c-0.3-10.7,8.2-19.6,18.8-19.8c8.9-0.2,16.8,5.7,19.2,14.3c5.1-8.8,14.5-14.2,24.7-14.3
	c16,0,28.9,13.2,28.9,29.5c0,3.5-0.6,6.9-1.8,10.2c0.6,0,1.2-0.1,1.8-0.1c12.8,0,23.2,10.6,23.2,23.7c0,0.8,0,1.6-0.1,2.4
	c10.7,4.8,17.5,15.4,17.4,27.1c0,16.3-12.9,29.5-28.8,29.5c-1.7,0-3.3-0.2-5-0.5c0.1,1,0.1,2,0.1,3c0,18.3-14.5,33.1-32.3,33.1
	c-6.6,0-13-2.1-18.4-5.9c-4.3,3.8-9.9,5.9-15.6,5.9c-13.3,0-24.1-11.1-24.1-24.7c0-0.6,0-1.2,0.1-1.8h-0.1
	c-14.3,0-25.8-11.8-25.8-26.4C725.6,523.6,731,514.5,739.7,509.9z"/>
<linearGradient id="SVGID_24_" gradientUnits="userSpaceOnUse" x1="114.6349" y1="-155.7101" x2="114.6349" y2="31" gradientTransform="matrix(-1 0 0 -1 909.08 503.18)">
	<stop  offset="0" style="stop-color:#808080;stop-opacity:0.25"/>
	<stop  offset="0.54" style="stop-color:#808080;stop-opacity:0.12"/>
	<stop  offset="1" style="stop-color:#808080;stop-opacity:0.1"/>
</linearGradient>
<rect x="790.7" y="472.2" class="st35" width="7.5" height="186.7"/>
<rect x="792.3" y="474.8" class="st5" width="3.8" height="184.1"/>
<rect x="777.6" y="490.9" transform="matrix(0.7337 -0.6794 0.6794 0.7337 -141.4504 666.4291)" class="st5" width="3.8" height="45.6"/>
<rect x="791.1" y="545.3" transform="matrix(0.8028 -0.5962 0.5962 0.8028 -166.2925 591.4833)" class="st5" width="40" height="3.8"/>
<g id="ea5e6e86-8f22-4c0d-a253-147f504d396e">
	
		<linearGradient id="SVGID_25_" gradientUnits="userSpaceOnUse" x1="183.6849" y1="-95.76" x2="183.6849" y2="45.0009" gradientTransform="matrix(-1 0 0 -1 909.08 503.18)">
		<stop  offset="0" style="stop-color:#808080;stop-opacity:0.25"/>
		<stop  offset="0.54" style="stop-color:#808080;stop-opacity:0.12"/>
		<stop  offset="1" style="stop-color:#808080;stop-opacity:0.1"/>
	</linearGradient>
	<path class="st36" d="M782.9,530.8c5.1-5.4,7.9-12.5,7.9-19.9c0-10.4-5.6-20-14.5-25.3c2-2.9,3-6.3,3-9.7c0-9.8-8.2-17.7-18.3-17.7
		c-8-0.1-15.1,5.1-17.5,12.7c-5.1-8-13.9-12.8-23.3-12.7c-15.1,0-27.3,11.8-27.3,26.3c0,3.1,0.6,6.2,1.7,9.1c-0.5,0-1.1-0.1-1.7-0.1
		c-12.1,0-21.9,9.5-21.9,21.1c0,0.7,0,1.4,0.1,2.1c-9.9,4-16.3,13.5-16.4,24.1c0,14.5,12.2,26.3,27.2,26.3c1.6,0,3.1-0.1,4.7-0.4
		c-0.1,0.9-0.1,1.8-0.1,2.7c0,16.3,13.7,29.5,30.5,29.5c6.2,0,12.2-1.8,17.4-5.3c4.2,3.4,9.4,5.3,14.8,5.3c12.6,0,22.8-9.8,22.8-22
		c0-0.5,0-1-0.1-1.6h0.1c13.5,0,24.4-10.6,24.4-23.6C796.1,542.8,790.9,534.7,782.9,530.8z"/>
</g>
<path id="_x37_9f8c247-f548-4c1c-8f49-a16aaa215201" class="st7" d="M780.4,530.7c4.9-5.2,7.6-12,7.6-19.1
	c-0.1-9.9-5.3-19.1-13.9-24.2c1.9-2.7,2.9-6,2.9-9.3c0-9.3-7.8-16.9-17.5-16.9c-7.7-0.1-14.5,4.9-16.8,12.2
	c-4.9-7.6-13.3-12.2-22.3-12.2c-14.4,0-26.1,11.3-26.1,25.2c0,3,0.5,5.9,1.6,8.7c-0.5,0-1.1-0.1-1.6-0.1c-11.6,0-20.9,9.1-20.9,20.2
	c0,0.7,0,1.3,0.1,2c-9.4,3.8-15.6,12.9-15.7,23.1c0,13.9,11.6,25.1,26,25.1c1.5,0,3-0.1,4.5-0.4c-0.1,0.8-0.1,1.7-0.1,2.5
	c0,15.6,13.1,28.2,29.2,28.2c5.9,0,11.7-1.7,16.6-5c4,3.3,9,5,14.1,5c12,0,21.8-9.4,21.8-21.1c0-0.5,0-1-0.1-1.5h0.1
	c12.9,0,23.3-10.1,23.3-22.6C793.1,542.2,788.1,534.4,780.4,530.7z"/>
<line id="_x38_6901f0c-b7b5-4ba8-942f-e54f281a8bcd" class="st8" x1="730.9" y1="501.2" x2="730.9" y2="657.9"/>
<linearGradient id="SVGID_26_" gradientUnits="userSpaceOnUse" x1="178" y1="-154.7701" x2="178" y2="1.94" gradientTransform="matrix(-1 0 0 -1 909.08 503.18)">
	<stop  offset="0" style="stop-color:#808080;stop-opacity:0.25"/>
	<stop  offset="0.54" style="stop-color:#808080;stop-opacity:0.12"/>
	<stop  offset="1" style="stop-color:#808080;stop-opacity:0.1"/>
</linearGradient>
<rect x="726.8" y="501.2" class="st37" width="8.5" height="156.7"/>
<rect x="728.6" y="501.2" class="st5" width="4.7" height="156.7"/>
<line id="_x36_3650f42-d3c3-489e-a647-f3904e46b7bd" class="st8" x1="730.5" y1="548.2" x2="758.4" y2="519.6"/>
<rect x="724.5" y="531.5" transform="matrix(0.7 -0.7141 0.7141 0.7 -157.9585 691.7667)" class="st5" width="40" height="4.7"/>
<line id="_x32_5077b7e-584e-4c29-8c8c-a60ca5d6c1ae" class="st8" x1="730.5" y1="572.7" x2="701.4" y2="552.3"/>
<rect x="713.6" y="544.8" transform="matrix(0.5744 -0.8186 0.8186 0.5744 -155.7858 825.4407)" class="st5" width="4.7" height="35.4"/>
</svg>
