<?xml version="1.0" encoding="utf-8"?>
<!-- Generator: Adobe Illustrator 19.2.1, SVG Export Plug-In . SVG Version: 6.00 Build 0)  -->
<svg version="1.1" id="Camada_1" xmlns="http://www.w3.org/2000/svg" xmlns:xlink="http://www.w3.org/1999/xlink" x="0px" y="0px"
	 viewBox="0 0 500 378.2" style="enable-background:new 0 0 500 378.2;" xml:space="preserve">
<style type="text/css">
	.st0{fill:#4099D2;}
	.st1{opacity:0.5;fill:#9ECBE8;stroke:#4099D2;stroke-miterlimit:10;}
	.st2{fill:#2F2E41;}
	.st3{fill:#3F3D56;}
	.st4{fill:#F2F2F2;}
	.st5{opacity:0.1;enable-background:new    ;}
	.st6{fill:#FBBEBE;}
	.st7{fill:#A0616A;}
	.st8{fill:#57B894;}
</style>
<g>
	<title>apartment rent</title>
	<rect x="311.6" y="146.2" class="st0" width="42.7" height="27.3"/>
	<rect x="245" y="188.9" class="st0" width="42.7" height="27.3"/>
	<path class="st1" d="M479.2,155.2v-58h-32.2V59.5h-21.8v37.7h-32.2v58H375V24.8h-36.2V12.4h-48.1V0h-47.6v12.4H198v12.4h-39.2
		v129.9H138v-58h-32.2V59H84v37.7H51.7v58H30.9v205.8h47.6v-72.9h32.7v72.9h127.9v-84.8h55.5v84.8h77.4v0.5h47.6v-72.9h32.7V361H500
		V155.2H479.2z M48,180h18.8v14.9H48V180z M48.3,221.7h18.8v14.9H48.3V221.7z M67.3,278.2H48.5v-14.9h18.8V278.2z M116.7,143.8H73
		v-8.9h43.6V143.8z M116.7,130.9H73V122h43.6V130.9z M116.7,118H73v-8.9h43.6V118z M122.9,180h18.8v14.9h-18.8V180z M123.1,221.7
		H142v14.9h-18.8V221.7z M142.2,278.2h-18.8v-14.9h18.8V278.2z M219.3,253.4h-34.7V238h34.7V253.4z M219.3,209.3h-34.7v-15.4h34.7
		V209.3z M219.3,165.1h-34.7v-15.4h34.7V165.1z M219.3,121h-34.7v-15.4h34.7V121z M219.3,76.9h-34.7V61.5h34.7V76.9z M284.3,253.4
		h-34.7V238h34.7V253.4z M284.3,209.3h-34.7v-15.4h34.7V209.3z M284.3,165.1h-34.7v-15.4h34.7V165.1z M284.3,121h-34.7v-15.4h34.7
		V121z M284.3,76.9h-34.7V61.5h34.7V76.9z M349.3,253.4h-34.7V238h34.7V253.4z M349.3,209.3h-34.7v-15.4h34.7V209.3z M349.3,165.1
		h-34.7v-15.4h34.7V165.1z M349.3,121h-34.7v-15.4h34.7V121z M349.3,76.9h-34.7V61.5h34.7V76.9z M389.2,180.5H408v14.9h-18.8V180.5z
		 M389.4,222.2h18.8V237h-18.8V222.2z M408.5,278.7h-18.8v-14.9h18.8V278.7z M457.9,144.3h-43.6v-8.9h43.6V144.3z M457.9,131.4
		h-43.6v-8.9h43.6V131.4z M457.9,118.5h-43.6v-8.9h43.6V118.5z M464,180.5h18.8v14.9H464V180.5z M464.3,222.2h18.8V237h-18.8V222.2z
		 M483.4,278.7h-18.8v-14.9h18.8V278.7z"/>
	<path class="st0" d="M59.6,310.5c-0.1,2-0.4,4.2-0.7,6.5l6.1-6.7l0,0.1c-0.4-1.6-1-3.2-1.8-4.6l0,0.1L59.6,310.5z"/>
	<path class="st0" d="M59.6,310.1l3.6-4.5c-0.8-1.4-1.9-2.5-3.2-3.4c-0.1,0-0.1-0.1-0.2-0.1C59.8,302.6,59.9,305.8,59.6,310.1z"/>
	<path class="st0" d="M56.4,327.9c-0.2,0.5-0.3,0.9-0.5,1.4l8.9-5.2l0,0.1c0.2-0.8,0.3-1.6,0.5-2.4L56.4,327.9L56.4,327.9z"/>
	<path class="st0" d="M57.7,323.5l8.1-6.6l0,0.1c0-2.2-0.2-4.4-0.7-6.5l-6.2,6.9C58.5,319.5,58.1,321.5,57.7,323.5z"/>
	<path class="st0" d="M58.7,317.2l-9.6-10.8l0.1-0.1c-0.9,1.3-1.7,2.6-2.3,4.1l11,11.7C58.2,320.4,58.5,318.7,58.7,317.2z"/>
	<path class="st0" d="M46.7,310.6L46.7,310.6c0,0,0-0.1,0.1-0.1L46.7,310.6z"/>
	<path class="st0" d="M46.2,311.9l0,0.1C46.1,312,46.2,312,46.2,311.9L46.2,311.9z"/>
	<path class="st0" d="M57.8,322.4l-11-11.7c-0.2,0.4-0.4,0.9-0.5,1.3l11.3,11.7C57.6,323.2,57.7,322.8,57.8,322.4z"/>
	<path class="st0" d="M65.4,321.6c0.2-1.5,0.3-3,0.4-4.5l-8.2,6.7c-0.3,1.3-0.7,2.6-1.1,3.8l8.9-6.2L65.4,321.6z"/>
	<path class="st0" d="M44.7,322.4l8.9,11.7c0.7-1.4,1.4-2.9,1.9-4.4l-10.9-11.4c-0.1,1.4-0.1,2.9,0,4.3L44.7,322.4z"/>
	<path class="st0" d="M59.6,302.1L59.6,302.1c-1.9-1.1-4-1-6,0.1l5.9,7.9C59.8,305.4,59.6,302.1,59.6,302.1z"/>
	<path class="st0" d="M55.6,330.1c-0.5,1.3-1.1,2.7-1.8,3.9l9-4.6l0,0.1c0.7-1.1,1.2-2.4,1.6-3.6c0.1-0.5,0.3-1,0.4-1.5l-9,5.3
		C55.7,329.8,55.7,329.9,55.6,330.1z"/>
	<path class="st0" d="M59.4,310.5l-6-8.1l0.1-0.1c-1.7,1-3.2,2.3-4.3,4l9.6,10.7C59.1,314.6,59.3,312.4,59.4,310.5z"/>
	<path class="st0" d="M55.7,329.4c0.7-1.8,1.2-3.7,1.7-5.5l-11.3-11.7c-0.3,0.7-0.5,1.5-0.7,2.3c-0.3,1.1-0.5,2.3-0.6,3.5
		L55.7,329.4L55.7,329.4z"/>
	<path class="st0" d="M67.3,342.1c-1.4,1.4-2.9,3-4.7,4.5l9-1.3l0,0.1c0.7-1.5,1.3-3.1,1.6-4.7l0,0.1L67.3,342.1z"/>
	<path class="st0" d="M72.9,335.9c0-0.1-0.1-0.1-0.1-0.2c-0.3,0.4-2.3,2.9-5.3,6.1l5.6-1.2C73.5,339,73.4,337.4,72.9,335.9z"/>
	<path class="st0" d="M53.7,353.4c-0.4,0.3-0.8,0.5-1.3,0.8l10.2,1.7l-0.1,0.1c0.7-0.5,1.3-1,1.9-1.6L53.7,353.4L53.7,353.4z"/>
	<path class="st0" d="M57.5,350.8l10.4,0l-0.1,0.1c1.4-1.7,2.6-3.5,3.6-5.5l-9.1,1.3C60.7,348.3,59.1,349.6,57.5,350.8z"/>
	<path class="st0" d="M54,353.3l10.7,0.9l-0.1,0.1c1.1-1,2.2-2.1,3.1-3.2l-10.6,0C56.1,351.9,55.1,352.6,54,353.3z"/>
	<path class="st0" d="M40.8,358.6c0.1-0.1,0.2-0.2,0.2-0.2c2.2-0.3,4.3-1,6.4-1.8l0.3-7.7c0.1-0.2,0.2-0.4,0.3-0.6l-0.3,8.2
		c1.5-0.6,2.9-1.3,4.3-2.1l-1-14.4c0.1,0,0.2-0.1,0.2-0.1l1,14.4l0,0c1.7-1,3.3-2,4.8-3.2L56,336.8c0.1-0.1,0.2-0.1,0.2-0.2
		l1.1,14.2c0.3-0.3,0.7-0.5,1-0.8l-0.9-14.3c0.1-0.1,0.2-0.1,0.2-0.2l0.9,14.4c1.4-1.1,2.7-2.2,3.8-3.2l-0.6-14.4l0.1-0.1
		c-0.4,0.1-0.8,0.2-1.2,0.4c0.8-0.9,1.5-1.8,2.1-2.8l-9.1,4.7c-0.6,1.2-1.3,2.3-2.1,3.4c-0.2,0.2-0.3,0.3-0.5,0.5l0,0.2
		c-0.1,0.1-0.1,0.2-0.2,0.3l0-0.2c-0.1,0.1-0.2,0.2-0.3,0.4c1.1-1.4,2.2-3,3-4.6l-8.9-11.6c0.1,1,0.2,2.1,0.3,3.1
		c-0.8-1.3-1.8-2.6-3-3.6l0.1,0.1l-2,5.6c0.5,1.9,0.9,4.1,1.3,6.4l3.6-8.2c0,0.1,0,0.3,0.1,0.4l-3.6,8.1c0.4,2.2,0.6,4.2,0.8,6.3
		l4.4-6.8c0,0.1,0,0.2,0.1,0.3l-4.4,6.9c0.1,1.3,0.1,2.6,0.1,3.9l5.3-7c0,0.1,0.1,0.2,0.1,0.3l-5.4,7.1l0-0.1c0,0.5,0,1,0,1.5l6-6.8
		c0,0.1,0.1,0.2,0.1,0.3l-6.1,6.9c0,0.2,0,0.3,0,0.5c-0.1,1.4-0.2,2.9-0.4,4.3l0.6-0.6c-0.1,0.2-0.2,0.5-0.3,0.7l-0.3,0.3
		c0,0.2-0.1,0.4-0.1,0.6c-0.1,0.3-0.2,0.5-0.4,0.8c0.1-0.5,0.2-1,0.3-1.5l-12-8.3c3.1,8,9,15.6,9.4,16.1c0.3-0.6,0.6-1.2,0.8-1.8
		c0.1,0,0.1,0,0.2,0c0,0.1-0.1,0.1-0.1,0.2c0,0-0.1,0-0.1,0c0,0,0.1,0,0.1,0c-0.2,0.4-0.4,0.8-0.6,1.2c0.3-0.2,0.7-0.6,1.1-1.1
		c2.8,0.7,10.4,2.3,16.9,0l-10-2.2C45.4,357.6,43.1,358.2,40.8,358.6z M47.8,346l0.2-0.2l0,0.4l-0.2,0.2L47.8,346z"/>
	<path class="st0" d="M72.7,335.6L72.7,335.6c-0.8-2-2.5-3.3-4.7-3.8l-0.6,9.9C70.7,338.3,72.7,335.7,72.7,335.6z"/>
	<path class="st0" d="M51.7,354.6c-1.3,0.7-2.5,1.4-3.9,1.9l9.9,2.2l-0.1,0.1c1.3-0.4,2.4-1.1,3.5-1.8c0.4-0.3,0.9-0.6,1.3-0.9
		l-10.4-1.7C52,354.5,51.9,354.6,51.7,354.6z"/>
	<path class="st0" d="M62.6,346.4c1.7-1.5,3.3-3.1,4.6-4.5l0.6-10.1l0.1-0.1c-2-0.3-4-0.2-5.9,0.3L62.6,346.4z"/>
	<path class="st0" d="M41.9,322.1c-1.1-1.1-2.6-1.9-4.1-2.2c-0.1,0-0.1,0-0.2,0c0.2,0.5,1.2,3.5,2.3,7.7L41.9,322.1z"/>
	<path class="st0" d="M41.2,334.5l-12.5-7.2l0-0.1c-0.5,1.5-0.8,3-0.9,4.6l14.1,7.7C41.7,337.7,41.5,336.1,41.2,334.5z"/>
	<path class="st0" d="M27.8,332L27.8,332c0,0,0-0.1,0-0.1L27.8,332z"/>
	<path class="st0" d="M27.7,333.4l0,0.1C27.7,333.5,27.7,333.5,27.7,333.4L27.7,333.4z"/>
	<path class="st0" d="M41.9,339.8L27.8,332c0,0.5-0.1,0.9-0.1,1.4L42,341C42,340.6,42,340.2,41.9,339.8z"/>
	<path class="st0" d="M42.1,347.4l-13.9-7.5c0.3,1.4,0.8,2.8,1.3,4.1l0-0.1l12.1,8.3C41.9,350.6,42.1,349,42.1,347.4z"/>
	<path class="st0" d="M37.4,319.9L37.4,319.9c-2.1-0.4-4.1,0.3-5.7,1.9l8,5.7C38.6,323,37.5,319.9,37.4,319.9z"/>
	<path class="st0" d="M39.9,327.9l-8.2-5.9l0-0.1c-1.3,1.5-2.3,3.2-2.9,5.1l12.4,7.2C40.8,331.9,40.3,329.8,39.9,327.9z"/>
	<path class="st0" d="M42.1,347.1c0.1-1.9,0-3.9-0.1-5.8l-14.4-7.6c0,0.8,0,1.6,0,2.4c0.1,1.2,0.2,2.3,0.5,3.5L42.1,347.1
		L42.1,347.1z"/>
	<path class="st0" d="M484.7,309c-0.1,2-0.4,4.2-0.7,6.5l6.1-6.7l0,0.1c-0.4-1.6-1-3.2-1.8-4.6l0,0.1L484.7,309z"/>
	<path class="st0" d="M484.7,308.6l3.6-4.5c-0.8-1.4-1.9-2.5-3.2-3.4c-0.1,0-0.1-0.1-0.2-0.1C484.9,301.1,485,304.3,484.7,308.6z"/>
	<path class="st0" d="M481.5,326.4c-0.2,0.5-0.3,0.9-0.5,1.4l8.9-5.2l0,0.1c0.2-0.8,0.3-1.6,0.5-2.4L481.5,326.4L481.5,326.4z"/>
	<path class="st0" d="M482.8,322l8.1-6.6l0,0.1c0-2.2-0.2-4.4-0.7-6.5l-6.2,6.9C483.6,318,483.2,320,482.8,322z"/>
	<path class="st0" d="M483.8,315.7l-9.6-10.8l0.1-0.1c-0.9,1.3-1.7,2.6-2.3,4.1l11,11.7C483.3,318.9,483.6,317.2,483.8,315.7z"/>
	<path class="st0" d="M471.8,309.1L471.8,309.1c0,0,0-0.1,0.1-0.1L471.8,309.1z"/>
	<path class="st0" d="M482.9,320.9l-11-11.7c-0.2,0.4-0.4,0.9-0.5,1.3l11.3,11.7C482.7,321.7,482.8,321.3,482.9,320.9z"/>
	<path class="st0" d="M471.3,310.4l0,0.1C471.2,310.5,471.3,310.5,471.3,310.4L471.3,310.4z"/>
	<path class="st0" d="M490.5,320.1c0.2-1.5,0.3-3,0.4-4.5l-8.2,6.7c-0.3,1.3-0.7,2.6-1.1,3.8l8.9-6.2L490.5,320.1z"/>
	<path class="st0" d="M469.8,320.9l8.9,11.7c0.7-1.4,1.4-2.9,1.9-4.4l-10.9-11.4c-0.1,1.4-0.1,2.9,0,4.3L469.8,320.9z"/>
	<path class="st0" d="M484.7,300.6L484.7,300.6c-1.9-1.1-4-1-6,0.1l5.9,7.9C484.9,303.9,484.7,300.6,484.7,300.6z"/>
	<path class="st0" d="M480.7,328.6c-0.5,1.3-1.1,2.7-1.8,3.9l9-4.6l0,0.1c0.7-1.1,1.2-2.4,1.6-3.6c0.1-0.5,0.3-1,0.4-1.5l-9,5.3
		C480.8,328.3,480.8,328.4,480.7,328.6z"/>
	<path class="st0" d="M484.5,309l-6-8.1l0.1-0.1c-1.7,1-3.2,2.3-4.3,4l9.6,10.7C484.2,313.1,484.4,310.9,484.5,309z"/>
	<path class="st0" d="M480.8,327.9c0.7-1.8,1.2-3.7,1.7-5.5l-11.3-11.7c-0.3,0.7-0.5,1.5-0.7,2.3c-0.3,1.1-0.5,2.3-0.6,3.5
		L480.8,327.9L480.8,327.9z"/>
	<path class="st0" d="M492.4,340.6c-1.4,1.4-2.9,3-4.7,4.5l9-1.3l0,0.1c0.7-1.5,1.3-3.1,1.6-4.7l0,0.1L492.4,340.6z"/>
	<path class="st0" d="M498,334.5c0-0.1-0.1-0.1-0.1-0.2c-0.3,0.4-2.3,2.9-5.3,6.1l5.6-1.2C498.6,337.5,498.5,336,498,334.5z"/>
	<path class="st0" d="M478.8,351.9c-0.4,0.3-0.8,0.5-1.3,0.8l10.2,1.7l-0.1,0.1c0.7-0.5,1.3-1,1.9-1.6L478.8,351.9L478.8,351.9z"/>
	<path class="st0" d="M482.6,349.4l10.4,0l-0.1,0.1c1.4-1.7,2.6-3.5,3.6-5.5l-9.1,1.3C485.8,346.8,484.2,348.1,482.6,349.4z"/>
	<path class="st0" d="M479.1,351.8l10.7,0.9l-0.1,0.1c1.1-1,2.2-2.1,3.1-3.2l-10.6,0C481.2,350.4,480.1,351.1,479.1,351.8z"/>
	<path class="st0" d="M465.9,357.1c0.1-0.1,0.2-0.2,0.2-0.2c2.2-0.3,4.3-1,6.4-1.8l0.3-7.7c0.1-0.2,0.2-0.4,0.3-0.6l-0.3,8.2
		c1.5-0.6,2.9-1.3,4.3-2.1l-1-14.4c0.1,0,0.2-0.1,0.2-0.1l1,14.4l0,0c1.7-1,3.3-2,4.8-3.2l-1.1-14.2c0.1-0.1,0.2-0.1,0.2-0.2
		l1.1,14.2c0.3-0.3,0.7-0.5,1-0.8l-0.9-14.3c0.1-0.1,0.2-0.1,0.2-0.2l0.9,14.4c1.4-1.1,2.7-2.2,3.8-3.2l-0.6-14.4l0.1-0.1
		c-0.4,0.1-0.8,0.2-1.2,0.4c0.8-0.9,1.5-1.8,2.1-2.8l-9.1,4.7c-0.6,1.2-1.3,2.3-2.1,3.4c-0.2,0.2-0.3,0.3-0.5,0.5l0,0.2
		c-0.1,0.1-0.1,0.2-0.2,0.3l0-0.2c-0.1,0.1-0.2,0.2-0.3,0.4c1.1-1.4,2.2-3,3-4.6l-8.9-11.6c0.1,1,0.2,2.1,0.3,3.1
		c-0.8-1.3-1.8-2.6-3-3.6l0.1,0.1l-2,5.6c0.5,1.9,0.9,4.1,1.3,6.4l3.6-8.2c0,0.1,0,0.3,0.1,0.4l-3.6,8.1c0.4,2.2,0.6,4.2,0.8,6.3
		l4.4-6.8c0,0.1,0,0.2,0.1,0.3l-4.4,6.9c0.1,1.3,0.1,2.6,0.1,3.9l5.3-7c0,0.1,0.1,0.2,0.1,0.3l-5.4,7.1l0-0.1c0,0.5,0,1,0,1.5l6-6.8
		c0,0.1,0.1,0.2,0.1,0.3l-6.1,6.9c0,0.2,0,0.3,0,0.5c-0.1,1.4-0.2,2.9-0.4,4.3l0.6-0.6c-0.1,0.2-0.2,0.5-0.3,0.7l-0.3,0.3
		c0,0.2-0.1,0.4-0.1,0.6c-0.1,0.3-0.2,0.5-0.4,0.8c0.1-0.5,0.2-1,0.3-1.5l-12-8.3c3.1,8,9,15.6,9.4,16.1c0.3-0.6,0.6-1.2,0.8-1.8
		c0.1,0,0.1,0,0.2,0c0,0.1-0.1,0.1-0.1,0.2c0,0-0.1,0-0.1,0c0,0,0.1,0,0.1,0c-0.2,0.4-0.4,0.8-0.6,1.2c0.3-0.2,0.7-0.6,1.1-1.1
		c2.8,0.7,10.4,2.3,16.9,0l-10-2.2C470.4,356.1,468.2,356.8,465.9,357.1z M472.9,344.5l0.2-0.2l0,0.4l-0.2,0.2L472.9,344.5z"/>
	<path class="st0" d="M497.8,334.1L497.8,334.1c-0.8-2-2.5-3.3-4.7-3.8l-0.6,9.9C495.8,336.8,497.8,334.2,497.8,334.1z"/>
	<path class="st0" d="M476.8,353.1c-1.3,0.7-2.5,1.4-3.9,1.9l9.9,2.2l-0.1,0.1c1.3-0.4,2.4-1.1,3.5-1.8c0.4-0.3,0.9-0.6,1.3-0.9
		l-10.4-1.7C477.1,353,477,353.1,476.8,353.1z"/>
	<path class="st0" d="M487.7,345c1.7-1.5,3.3-3.1,4.6-4.5l0.6-10.1l0.1-0.1c-2-0.3-4-0.2-5.9,0.3L487.7,345z"/>
	<path class="st0" d="M467,320.6c-1.1-1.1-2.6-1.9-4.1-2.2c-0.1,0-0.1,0-0.2,0c0.2,0.5,1.2,3.5,2.3,7.7L467,320.6z"/>
	<path class="st0" d="M466.3,333l-12.5-7.2l0-0.1c-0.5,1.5-0.8,3-0.9,4.6L467,338C466.8,336.2,466.6,334.6,466.3,333z"/>
	<path class="st0" d="M452.8,331.9l0,0.1C452.8,332,452.8,332,452.8,331.9L452.8,331.9z"/>
	<path class="st0" d="M452.9,330.5L452.9,330.5c0,0,0-0.1,0-0.1L452.9,330.5z"/>
	<path class="st0" d="M467,338.3l-14.1-7.8c0,0.5-0.1,0.9-0.1,1.4l14.3,7.6C467.1,339.1,467.1,338.7,467,338.3z"/>
	<path class="st0" d="M467.2,345.9l-13.9-7.5c0.3,1.4,0.8,2.8,1.3,4.1l0-0.1l12.1,8.3C467,349.1,467.2,347.5,467.2,345.9z"/>
	<path class="st0" d="M462.5,318.4L462.5,318.4c-2.1-0.4-4.1,0.3-5.7,1.9l8,5.7C463.7,321.5,462.6,318.4,462.5,318.4z"/>
	<path class="st0" d="M465,326.4l-8.2-5.9l0-0.1c-1.3,1.5-2.3,3.2-2.9,5.1l12.4,7.2C465.9,330.5,465.4,328.3,465,326.4z"/>
	<path class="st0" d="M467.2,345.6c0.1-1.9,0-3.9-0.1-5.8l-14.4-7.6c0,0.8,0,1.6,0,2.4c0.1,1.2,0.2,2.3,0.5,3.5L467.2,345.6
		L467.2,345.6z"/>
	<path class="st2" d="M30.2,360.8H500l0,0v6.7c0,5.9-4.8,10.7-10.7,10.7h0H40.9c-5.9,0-10.7-4.8-10.7-10.7c0,0,0,0,0,0V360.8
		L30.2,360.8z"/>
	<rect x="30.2" y="355.3" class="st3" width="469.8" height="9.4"/>
	<path class="st4" d="M394.3,32.5l5.4,3.4l-3.3-6c0.9-0.7,2.1-1.2,3.3-1.2c0,0,0.1,0,0.1,0c0.4,0,0.7,0,1.1-0.1l1.8,1.2l-0.8-1.4
		c1.3-0.5,2.4-1.3,3.2-2.4l3.3,2.1l-2.1-3.8c1.9-2.3,4.5-3.7,7.3-3.7c3.4,0,6.4,2,8.4,5.2c1.2,1.9,3.3,3.1,5.5,3c0.1,0,0.1,0,0.2,0
		c3.8,0,6.8,4.3,6.8,9.5s-3,9.5-6.8,9.5c-0.8,0-1.6-0.2-2.4-0.6c-2.6-1.3-5.6-1.3-8.2-0.2c-2.2,1-4.8,1-7,0
		c-2.6-1.1-5.6-1.1-8.2,0.2c-0.7,0.4-1.5,0.6-2.3,0.6c-3.8,0-6.8-4.3-6.8-9.5C392.9,36.3,393.3,34.3,394.3,32.5z"/>
	<path class="st4" d="M119.8,60.4l3.4,2.2l-2.1-3.8c0.6-0.5,1.3-0.7,2.1-0.7c0,0,0,0,0.1,0c0.2,0,0.5,0,0.7-0.1l1.2,0.7l-0.5-0.9
		c0.8-0.3,1.5-0.8,2-1.5l2.1,1.3l-1.3-2.4c1.1-1.4,2.8-2.3,4.7-2.4c2.2,0,4.1,1.3,5.3,3.3c0.7,1.2,2.1,1.9,3.5,1.9c0,0,0.1,0,0.1,0
		c2.4,0,4.3,2.7,4.3,6.1s-1.9,6.1-4.3,6.1c-0.5,0-1-0.1-1.5-0.4c-1.6-0.8-3.6-0.8-5.2-0.1c-1.4,0.6-3,0.6-4.5,0
		c-1.7-0.7-3.6-0.7-5.2,0.1c-0.5,0.2-1,0.4-1.5,0.4c-2.4,0-4.3-2.7-4.3-6.1C118.9,62.9,119.2,61.6,119.8,60.4z"/>
	<path class="st4" d="M27.4,72.1l3.4,2.2l-2.1-3.8c0.6-0.5,1.3-0.7,2.1-0.7c0,0,0,0,0.1,0c0.2,0,0.5,0,0.7-0.1l1.2,0.7l-0.5-0.9
		c0.8-0.3,1.5-0.8,2-1.5l2.1,1.3l-1.3-2.4c1.1-1.4,2.8-2.3,4.7-2.4c2.2,0,4.1,1.3,5.3,3.3c0.7,1.2,2.1,1.9,3.5,1.9c0,0,0.1,0,0.1,0
		c2.4,0,4.3,2.7,4.3,6.1c0,3.3-1.9,6.1-4.3,6.1c-0.5,0-1-0.1-1.5-0.4c-1.6-0.8-3.6-0.8-5.2-0.1c-1.4,0.6-3,0.6-4.5,0
		c-1.7-0.7-3.6-0.7-5.2,0.1c-0.5,0.2-1,0.4-1.5,0.4c-2.4,0-4.3-2.7-4.3-6.1C26.5,74.5,26.8,73.2,27.4,72.1z"/>
	<path class="st0" d="M151.3,296.1l-0.6,0.6c0,0,0.2,6.6,0.4,8c0.2,1.4,1,3.8,0.4,5.6s-0.8,3.2-0.6,3.4c0.2,0.2-0.2,1-0.2,1l1.6-1
		l2.6-6l-1.2-6.4L151.3,296.1z"/>
	<path class="st5" d="M151.3,296.1l-0.6,0.6c0,0,0.2,6.6,0.4,8c0.2,1.4,1,3.8,0.4,5.6s-0.8,3.2-0.6,3.4c0.2,0.2-0.2,1-0.2,1l1.6-1
		l2.6-6l-1.2-6.4L151.3,296.1z"/>
	<path class="st0" d="M161.9,358.3c0,0,0-2.2-0.4-2.6c-0.4-0.4-1-1.8-1.8-1.8c-0.8,0-3.6,0.8-3.6,1c0,0.6-0.1,1.2-0.4,1.8
		c-0.4,0.6-2.6,3-0.4,3.4c1.5,0.2,3-0.1,4.2-1c0.2-0.2,1-0.4,1.2-0.2C160.9,359.1,161.9,358.3,161.9,358.3z"/>
	<path class="st0" d="M167.5,354.7l1.2,2.2c0,0,0.4,2,1,2.2h0.6c0,0,0.6,2.2,2,2c1.4-0.2,3-1,3-1.4s0-1.6-0.6-2
		c-0.8-0.7-1.6-1.4-2.4-2.2l-1-1L167.5,354.7z"/>
	<path class="st2" d="M152.2,281.5c-0.8,0.4-1.3,1.2-1.4,2c-0.1,1.4,1.3,2.8,0.8,4.1c-0.3,0.8-1.1,1.3-1.3,2c-0.1,0.6,0,1.3,0.3,1.8
		c0.3,0.8,0.7,1.5,1.1,2.2c0.8,1.3,1.9,2.6,2.2,4.1c0.1,0.6,0,1.1-0.4,1.6c0.4-0.3,0.9-0.5,1.4-0.6c2-0.7,3.9-1.7,5.6-3.1
		c0.6-0.4,1.1-1,1.3-1.7c0.3-1.2-0.6-2.5-0.5-3.7c0.1-0.8,0.5-1.5,0.8-2.3c0.5-1.5,0.3-3.2-0.5-4.6c-0.7-1.4-1.8-2.4-3.3-2.8
		c-1.1-0.3-2.2-0.2-3.3,0.1C154,280.8,153.1,281.1,152.2,281.5z"/>
	<path class="st0" d="M153.3,292.6c0.9-1.7,2.6-2.7,4.5-2.7c3.2,0,2.6-0.2,2.6-0.2l-1,4l-2,2L153.3,292.6z"/>
	<path class="st6" d="M154.1,288.3c0,0,1.8,3,0.6,4.2c-1.2,1.2-0.6,2.4-0.4,2.6c0.2,0.2,5.8,0.6,5.8,0.6l0.2-2.8l0.6-2.4
		c0,0-3.2-0.6-2.8-2C158.5,287.2,154.1,288.3,154.1,288.3z"/>
	<path class="st5" d="M154.1,288.3c0,0,1.8,3,0.6,4.2c-1.2,1.2-0.6,2.4-0.4,2.6c0.2,0.2,5.8,0.6,5.8,0.6l0.2-2.8l0.6-2.4
		c0,0-3.2-0.6-2.8-2C158.5,287.2,154.1,288.3,154.1,288.3z"/>
	<path class="st6" d="M168.1,316.7c-0.2,0.7-0.5,1.4-0.8,2c-0.2,0.2-0.8-1.4-0.8-1.4l0.6-1.4L168.1,316.7z"/>
	<polygon class="st6" points="165.8,307.6 166.6,312.2 154.6,312.2 155.2,307.6 	"/>
	<circle class="st6" cx="156.3" cy="286.2" r="3.8"/>
	<path class="st0" d="M157.1,293.9c0,0-2.2,0.2-2.2-0.2s-0.2-1.6-0.6-1.4c-0.4,0.2-3,0.4-2.8,1c0.2,0.6,0.6,1.8,0.2,1.8
		c-0.7,0.1-1.2,0.8-1,1.5c0,0,0,0,0,0.1c0.2,1,2.4,7,2.4,7s0.2,2,0.8,2.6c0.5,0.6,0.5,1.6,0,2.2c-0.4,0.4,1,0.8,1.6,1.6
		c0.6,0.8,5.2,0.2,5.4,0c0.2-0.2,5-0.2,5.4-0.6c0.4-0.4-0.2-1.6-0.2-1.6s-0.2-1.8,0-2.4c0.2-0.6-0.8-10.4-1.4-11s1.8-2.4,1.8-2.4
		s-0.4-1.6-3-1.8c0,0-0.8-1.2-1.6-1.2c-0.8,0-2.5,0.9-2.5,0.9s-0.5,2.7-1.1,2.9C157.9,293.2,157.4,293.5,157.1,293.9z"/>
	<path class="st0" d="M165.1,291.5l1.4,0.6c0,0,4,12.4,3.6,14.8c-0.4,2.4-1.4,10.6-2,10.6c-0.6,0-1.8-1.2-1.8-1.2v-2
		c0-0.4-0.6-1.6-0.2-1.6c0.4,0,1-0.4,0.6-0.8c-0.4-0.4-0.8-1-0.4-1.6s0.6-0.8,0.4-1.4c-0.2-0.6-0.6-1.2-0.2-1.6c0.4-0.4-1-2.4-1-2.4
		l-2.2-8.8l0.4-3.6L165.1,291.5z"/>
	<path class="st2" d="M165.9,310.5c0,0-7.6-0.6-8.6-0.6s-3.2-0.9-3.2-0.9s-5.8,5.7-3.8,15.1c2,9.4,2.4,21,3.6,24.4
		c0.8,2.4,1.5,4.9,2,7.4c0,0,2-3.6,5.8,0.4c0,0,0.4-3-0.2-4.2s-1.4-7.6-1.4-7.6s-1.4-10.2-1.4-11.4c0-1.2-0.8-11.4-0.6-11.6
		c0.2-0.2,1.2,7.8,1.4,9.2c0.2,1.4,0.8,12.2,1.4,13.4s3.4,10.8,5,11.4c1.6,0.6,7-0.2,6.8-0.6c-0.2-0.4-1.6-2.6-2-3.2l-1.6-2.4
		l-3.8-13l1.8-15.8C167.1,320.5,168.1,310.3,165.9,310.5z"/>
	<path class="st2" d="M158.6,285.7h-4.9c-0.4,0-0.8-0.3-0.9-0.7l-0.5-3.1h7.6l-0.7,3.2C159.3,285.4,159,285.7,158.6,285.7z"/>
	<path class="st2" d="M409.6,284.7h7.7l0,0v11l0,0l0,0c-4.2,0-7.7-3.4-7.7-7.7l0,0V284.7L409.6,284.7z"/>
	<polygon class="st7" points="405.1,349 404.5,351.7 408.4,351.7 408.6,349 	"/>
	<path class="st0" d="M405.1,351.2c0,0-0.7-0.5-1.1-0.2s-1.6,7.5-1.8,7.7s-5.7,2.9-4.4,3.1s6.2,0.4,7,0c0.7-0.4,2.7-3.8,2.7-3.8v3.1
		h0.4c0,0,0.4-3.3,1.3-4.2c0.9-0.9-0.7-4-0.7-4s0.4-2,0.2-2S405.1,351.2,405.1,351.2z"/>
	<polygon class="st7" points="416.4,347.1 415.9,349.8 419.7,349.8 419.9,347.1 	"/>
	<path class="st2" d="M412,329.2c0,0,1.8,5.5,2.2,6c0.4,0.5,1.6,10.8,1.6,10.8s-1.3,2,0.4,2.2s0.9-0.4,2,0c0.6,0.2,1.3,0.2,1.8-0.2
		c0,0,0.5-1.1,0.2-1.5c-0.4-0.4,0.4-9.9,0.4-9.9l-1.1-3.3l-0.9-10.4c0,0,1.1-2.7,0.5-3.5c-0.5-0.7-2.4,0.5-2.4,0.5L412,329.2z"/>
	<path class="st2" d="M409.7,315c0,0-0.5,5.9-0.9,6.2s-4.4,10.6-4.4,10.6s-1.1,1.3-0.7,6c0.4,4.8,1.3,9.5,1.3,9.5s-0.7,2.7,0.5,2.7
		s1.8-0.7,2.4-0.2c0.5,0.5,0.9,0,1.1-0.4s0.9-1.6,0.9-2s0.7-9.7,0.7-9.7s6-13.4,6.6-14.1c0.5-0.7,3.7-4.8,3.5-7.5L409.7,315z"/>
	<circle class="st7" cx="414.2" cy="286.4" r="3.8"/>
	<path class="st7" d="M413.5,289.7c0,0,1.5,3.3,1.6,4.2c0.2,0.9,3.7-1.8,3.7-1.8s-1.8-3.1-1.3-4.6L413.5,289.7z"/>
	<path class="st3" d="M419.4,291.6c0,0-2.7-2-4.8,2.2s-2.6,4-2.6,4s-2.4,0.7-1.6,5.9c0.7,5.1-2.4,11.9-1.1,12.3
		c1.3,0.4,13.2,2.4,13.2,0.9s-1.1-7.1-0.2-10.6C423.2,302.7,421,290.7,419.4,291.6z"/>
	<path class="st3" d="M416.6,292.5c0,0-2.2,3.3-2,5.9s0.2,4.2,0.2,4.2s-3.7,17.6-2.9,17.6c0.7,0,2.9,0.9,3.1,0.4
		c0.2-0.5,4.8-11.7,4.8-11.7s1.1-11.2-0.2-13.7C418.3,292.5,416.6,292.5,416.6,292.5z"/>
	<path class="st7" d="M412.2,319.5c0,0-1.8,6.2,0.7,6.4s1.1-6,1.1-6L412.2,319.5z"/>
	<path class="st0" d="M417.1,348.4c0,0-0.6-0.5-1-0.2c-0.3,0.3-1.4,6.6-1.6,6.7c-0.2,0.2-5,2.6-3.8,2.7c1.1,0.2,5.4,0.3,6.1,0
		c0.6-0.3,2.4-3.4,2.4-3.4v2.7h0.3c0,0,0.3-2.9,1.1-3.7s-0.6-3.5-0.6-3.5s0.3-1.8,0.2-1.8S417.1,348.4,417.1,348.4z"/>
	<path class="st2" d="M412.3,283.9c0.1-0.1,0.3-0.3,0.5-0.3c0.2,0,0.3,0,0.5,0c1.1,0.3,2.1,1.1,2.8,2c0.1,0.3,0.3,0.5,0.6,0.6
		c0.2,0,0.3,0.1,0.5,0.2c0.4,0.3,0.2,0.9-0.1,1.4c-0.6,1.2-0.9,2.5-0.8,3.8c0,0.2,0.1,0.5,0.2,0.6c0.2,0.2,0.5,0.3,0.8,0.3
		c0.9,0.1,1.8,0.2,2.7,0.1c0.9,0,1.8-0.1,2.4-0.8c0.6-0.7,0.5-1.8,0.1-2.7c-0.4-0.9-1-1.6-1.5-2.4c-0.4-0.9-0.8-1.8-1-2.7
		c-0.3-1.2-0.8-2.3-1.5-3.4c-0.7-1-1.8-1.7-3-1.9c-1.7-0.2-3.2,0.8-4.5,1.8c-1.5,1.1-3.1,2.5-3.2,4.4c-0.1,1.5,0.8,2.9,1.3,4.3
		c0.7,2.2,0.4,4.7,0.1,7c1.4-0.8,2.9-1.9,2.8-3.5c-0.1-1.1-0.9-1.9-1.4-2.9C409,287.4,410.6,285.7,412.3,283.9z"/>
	<path class="st3" d="M466.3,302.6c1.2-2,1.8-4.3,1.7-6.7c0-6-3.7-10.9-8.3-10.9c-4.6,0-8.3,4.9-8.3,10.9c0,2.3,0.6,4.6,1.7,6.7
		c-2.3,4.1-2.3,9.2,0,13.3c-2.3,4.1-2.3,9.2,0,13.3c-2.3,4.1-2.3,9.2,0,13.3c-1.2,2-1.8,4.3-1.7,6.7c0,6,3.7,10.9,8.3,10.9
		c4.6,0,8.3-4.9,8.3-10.9c0-2.3-0.6-4.6-1.7-6.7c2.3-4.1,2.3-9.2,0-13.3c2.3-4.1,2.3-9.2,0-13.3
		C468.7,311.8,468.7,306.8,466.3,302.6z"/>
	<ellipse class="st3" cx="459.8" cy="282.6" rx="8.3" ry="10.9"/>
	<ellipse class="st3" cx="459.8" cy="269.3" rx="8.3" ry="10.9"/>
	<path class="st4" d="M491,178c1.1-1.4,2.2-3,3.1-4.6l-21.9-3.6l23.7,0.2c4.6-10,4.9-21.4,0.8-31.6l-31.8,16.5l29.3-21.5
		c-11-19.1-35.5-25.6-54.6-14.6c-19.1,11-25.6,35.5-14.6,54.6c0.9,1.6,2,3.2,3.2,4.7c-1.8,2.3-3.3,4.7-4.6,7.3l28.4,14.8l-30.3-10.2
		c-4.3,12.8-1.9,26.9,6.4,37.5c-13.6,17.3-10.6,42.4,6.7,56.1c17.3,13.6,42.4,10.6,56.1-6.7c11.4-14.5,11.4-34.9,0-49.4
		C502.4,212.9,502.4,192.5,491,178L491,178z"/>
	<path class="st4" d="M419.6,202.7c0,9,3,17.7,8.5,24.7c-13.6,17.3-10.6,42.4,6.7,56.1c17.3,13.6,42.4,10.6,56.1-6.7
		c11.4-14.5,11.4-34.9,0-49.4C496.3,220.6,419.6,198.2,419.6,202.7z"/>
	<path class="st8" d="M491,178c1.1-1.4,2.2-3,3.1-4.6l-21.9-3.6l23.7,0.2c4.6-10,4.9-21.4,0.8-31.6l-31.8,16.5l29.3-21.5
		c-11-19.1-35.5-25.6-54.6-14.6c-19.1,11-25.6,35.5-14.6,54.6c0.9,1.6,2,3.2,3.2,4.7c-1.8,2.3-3.3,4.7-4.6,7.3l28.4,14.8l-30.3-10.2
		c-4.3,12.8-1.9,26.9,6.4,37.5c-13.6,17.3-10.6,42.4,6.7,56.1c17.3,13.6,42.4,10.6,56.1-6.7c11.4-14.5,11.4-34.9,0-49.4
		C502.4,212.9,502.4,192.5,491,178L491,178z"/>
	<path class="st5" d="M419.6,202.7c0,9,3,17.7,8.5,24.7c-13.6,17.3-10.6,42.4,6.7,56.1c17.3,13.6,42.4,10.6,56.1-6.7
		c11.4-14.5,11.4-34.9,0-49.4C496.3,220.6,419.6,198.2,419.6,202.7z"/>
	<path class="st3" d="M46.7,302.6c1.2-2,1.8-4.3,1.7-6.7c0-6-3.7-10.9-8.3-10.9s-8.3,4.9-8.3,10.9c0,2.3,0.6,4.6,1.7,6.7
		c-2.3,4.1-2.3,9.2,0,13.3c-2.3,4.1-2.3,9.2,0,13.3c-2.3,4.1-2.3,9.2,0,13.3c-1.2,2-1.8,4.3-1.7,6.7c0,6,3.7,10.9,8.3,10.9
		s8.3-4.9,8.3-10.9c0-2.3-0.6-4.6-1.7-6.7c2.3-4.1,2.3-9.2,0-13.3c2.3-4.1,2.3-9.2,0-13.3C49,311.8,49,306.8,46.7,302.6z"/>
	<ellipse class="st3" cx="40.1" cy="282.6" rx="8.3" ry="10.9"/>
	<ellipse class="st3" cx="40.1" cy="269.3" rx="8.3" ry="10.9"/>
	<path class="st4" d="M71.3,178c1.1-1.4,2.2-3,3.1-4.6l-21.9-3.6l23.7,0.2c4.6-10,4.9-21.4,0.8-31.6l-31.8,16.5l29.3-21.5
		c-11-19.1-35.5-25.6-54.6-14.6c-19.1,11-25.6,35.5-14.6,54.6c0.9,1.6,2,3.2,3.2,4.7c-1.8,2.3-3.3,4.7-4.6,7.3l28.4,14.8L2.1,189.9
		c-4.3,12.8-1.9,26.9,6.4,37.5c-13.6,17.3-10.6,42.4,6.7,56.1c17.3,13.6,42.4,10.6,56.1-6.7c11.4-14.5,11.4-34.9,0-49.4
		C82.7,212.9,82.7,192.5,71.3,178L71.3,178z"/>
	<path class="st4" d="M0,202.7c0,9,3,17.7,8.5,24.7c-13.6,17.3-10.6,42.4,6.7,56.1c17.3,13.6,42.4,10.6,56.1-6.7
		c11.4-14.5,11.4-34.9,0-49.4C76.7,220.6,0,198.2,0,202.7z"/>
	<path class="st8" d="M71.3,178c1.1-1.4,2.2-3,3.1-4.6l-21.9-3.6l23.7,0.2c4.6-10,4.9-21.4,0.8-31.6l-31.8,16.5l29.3-21.5
		c-11-19.1-35.5-25.6-54.6-14.6c-19.1,11-25.6,35.5-14.6,54.6c0.9,1.6,2,3.2,3.2,4.7c-1.8,2.3-3.3,4.7-4.6,7.3l28.4,14.8L2.1,189.9
		c-4.3,12.8-1.9,26.9,6.4,37.5c-13.6,17.3-10.6,42.4,6.7,56.1c17.3,13.6,42.4,10.6,56.1-6.7c11.4-14.5,11.4-34.9,0-49.4
		C82.7,212.9,82.7,192.5,71.3,178L71.3,178z"/>
	<path class="st5" d="M0,202.7c0,9,3,17.7,8.5,24.7c-13.6,17.3-10.6,42.4,6.7,56.1c17.3,13.6,42.4,10.6,56.1-6.7
		c11.4-14.5,11.4-34.9,0-49.4C76.7,220.6,0,198.2,0,202.7z"/>
	<polygon class="st8" points="287.8,175.8 268,195.6 258.6,186.2 254.9,189.9 267.9,202.9 291.4,179.5 	"/>
	<polygon class="st8" points="350.8,130.6 331,150.4 321.6,141 318,144.7 331,157.7 354.5,134.3 	"/>
</g>
</svg>
